# xmcd
# 
# Track frame offsets:
#     150
#     11939
#     21523
#     36488
#     50935
#     59049
#     73051
#     84747
#     95828
#     108411
#     118048
#     127195
#     140766
#     153036
#     163055
# 
# Disc length: 2284
# 
# Revision: 2
# Processed by: cddbd v1.5.2PL0 Copyright (c) Steve Scherf et al.
# Submitted via: fre:ac v1.0.17
# 
DISCID=ee08ea0f
DTITLE=Willie Nelson - Country Legend [CD 3)
DYEAR=2008
DGENRE=Country
TTITLE0=Is There Something On Your Mind?
TTITLE1=Half A Man
TTITLE2=Face Of A Fighter
TTITLE3=Will You Remember Mine?
TTITLE4=Things To Remember
TTITLE5=So Much To Do
TTITLE6=I'll Stay Around
TTITLE7=Go Away
TTITLE8=The Storm Has Just Begun
TTITLE9=Ashamed
TTITLE10=Right From Wrong
TTITLE11=Everything But You
TTITLE12=I Can't Find The Time
TTITLE13=I Didn't Sleep A Wink
TTITLE14=Slow Down Old World
EXTD=
EXTT0=
EXTT1=
EXTT2=
EXTT3=
EXTT4=
EXTT5=
EXTT6=
EXTT7=
EXTT8=
EXTT9=
EXTT10=
EXTT11=
EXTT12=
EXTT13=
EXTT14=
PLAYORDER=
